<svg width="1600" height="500" viewBox="0 0 1600 500" fill="none" xmlns="http://www.w3.org/2000/svg">
  <defs>
    <linearGradient id="bg" x1="40" y1="40" x2="1540" y2="460" gradientUnits="userSpaceOnUse">
      <stop stop-color="#25163D"/>
      <stop offset="1" stop-color="#0F0A1C"/>
    </linearGradient>
  </defs>
  <rect width="1600" height="500" rx="30" fill="url(#bg)"/>
  <text x="88" y="88" fill="#EFE9FF" font-family="Inter, Arial, sans-serif" font-size="38" font-weight="700">Use-Case Ready for Every Commercial Property</text>

  <rect x="120" y="140" width="1360" height="290" rx="24" fill="#1B1230" stroke="#6D52B8"/>

  <g fill="#8F6DF8">
    <rect x="182" y="248" width="116" height="120" rx="14"/>
    <rect x="324" y="218" width="116" height="150" rx="14"/>
    <rect x="466" y="186" width="116" height="182" rx="14"/>
  </g>
  <rect x="710" y="188" width="178" height="190" rx="24" fill="#9A7BFF"/>
  <rect x="746" y="228" width="106" height="74" rx="12" fill="#1A1230"/>
  <circle cx="799" cy="334" r="16" fill="#E8DEFF"/>

  <g fill="#7B59DB">
    <circle cx="1028" cy="268" r="38"/>
    <circle cx="1122" cy="268" r="38"/>
    <circle cx="1216" cy="268" r="38"/>
    <rect x="986" y="318" width="272" height="22" rx="11"/>
  </g>

  <text x="180" y="410" fill="#C9B8ED" font-family="Inter, Arial, sans-serif" font-size="23">Malls, offices, fuel stations, hotels, and highway properties</text>
</svg>
