<svg width="1600" height="760" viewBox="0 0 1600 760" fill="none" xmlns="http://www.w3.org/2000/svg">
  <defs>
    <linearGradient id="bg" x1="140" y1="80" x2="1380" y2="680" gradientUnits="userSpaceOnUse">
      <stop stop-color="#2A1748"/>
      <stop offset="1" stop-color="#150D25"/>
    </linearGradient>
    <linearGradient id="ground" x1="220" y1="500" x2="1380" y2="640" gradientUnits="userSpaceOnUse">
      <stop stop-color="#3D2670" stop-opacity="0.64"/>
      <stop offset="1" stop-color="#7C4DFF" stop-opacity="0.22"/>
    </linearGradient>
    <linearGradient id="charger" x1="0" y1="0" x2="1" y2="1">
      <stop stop-color="#9068FF"/>
      <stop offset="1" stop-color="#5C34D1"/>
    </linearGradient>
  </defs>
  <rect width="1600" height="760" rx="34" fill="url(#bg)"/>
  <ellipse cx="800" cy="598" rx="620" ry="130" fill="url(#ground)"/>

  <rect x="240" y="330" width="220" height="190" rx="22" fill="#1D1331" stroke="#6D52B8"/>
  <rect x="278" y="360" width="140" height="78" rx="14" fill="#120D1C" stroke="#7054BA"/>
  <path d="M350 352V304" stroke="#A58BFF" stroke-width="10" stroke-linecap="round"/>
  <path d="M338 305H362" stroke="#A58BFF" stroke-width="10" stroke-linecap="round"/>
  <path d="M263 456H432" stroke="#8E74D9" stroke-width="6" stroke-linecap="round"/>

  <rect x="640" y="214" width="290" height="362" rx="28" fill="url(#charger)"/>
  <rect x="692" y="272" width="186" height="132" rx="18" fill="#1A1230" stroke="#CBBEFF"/>
  <rect x="730" y="318" width="112" height="44" rx="10" fill="#2D1E50"/>
  <circle cx="785" cy="454" r="20" fill="#DCD2FF" fill-opacity="0.95"/>
  <path d="M898 340C958 350 994 392 996 448" stroke="#CDBDFF" stroke-width="12" stroke-linecap="round"/>
  <path d="M996 448V492" stroke="#CDBDFF" stroke-width="12" stroke-linecap="round"/>
  <rect x="970" y="486" width="54" height="38" rx="10" fill="#E7DFFF"/>

  <g opacity="0.94">
    <rect x="1096" y="372" width="226" height="148" rx="18" fill="#261A3E" stroke="#7D5FC5"/>
    <circle cx="1162" cy="446" r="28" fill="#8762F2"/>
    <circle cx="1254" cy="446" r="28" fill="#8762F2"/>
    <rect x="1128" y="398" width="162" height="22" rx="8" fill="#352554"/>
    <rect x="1128" y="478" width="162" height="18" rx="8" fill="#352554"/>
  </g>

  <rect x="208" y="584" width="1184" height="22" rx="11" fill="#2F2150"/>
  <text x="250" y="182" fill="#EDE7FF" font-family="Inter, Arial, sans-serif" font-size="44" font-weight="700">Live Charging Site Infrastructure</text>
  <text x="250" y="224" fill="#BFB1E2" font-family="Inter, Arial, sans-serif" font-size="26">Hardware, parking integration, and station-readiness for commercial locations</text>
</svg>
